<?xml version="1.0" encoding="UTF-8"?>
<svg id="Layer_1" xmlns="http://www.w3.org/2000/svg" version="1.1" viewBox="0 0 16 16">
  <!-- Generator: Adobe Illustrator 29.8.6, SVG Export Plug-In . SVG Version: 2.1.1 Build 1)  -->
  <defs>
    <style>
      .st0, .st1 {
        fill: #fff;
      }

      .st1 {
        fill-rule: evenodd;
      }
    </style>
  </defs>
  <path class="st0" d="M11,6c0,1.66-1.34,3-3,3s-3-1.34-3-3,1.34-3,3-3,3,1.34,3,3"/>
  <path class="st1" d="M0,8C0,3.58,3.58,0,8,0s8,3.58,8,8-3.58,8-8,8S0,12.42,0,8M8,1c-3.87,0-7,3.13-7,7,0,1.59.54,3.13,1.53,4.37.71-1.14,2.27-2.37,5.47-2.37s4.76,1.23,5.47,2.37c2.41-3.02,1.92-7.42-1.1-9.84-1.24-.99-2.78-1.53-4.37-1.53"/>
</svg>